# xmcd
# Track frame offsets:
# 150
# 16240
# 29122
# 45320
# 57095
# 71837
# 85740
# 99282
# 113217
# 127575
# 146357
# 162030
# 180200
# 198422
# 211515
# 221512
# 238562
# 251532
# 261547
# 284220
#
# Disc length: 3996 seconds
# Revision: 3
# Processed by: cddbd v1.5PL3 Copyright (c) Steve Scherf et al.
# Submitted via: VisiTrax 2.9.9.202 - For more info visit www.synapsa.com
#
DISCID=120f9a14
DTITLE=Ely, Joe - Joe Ely - Honky Tonk Masquerade
DYEAR=2000
DGENRE=Country
TTITLE0=I Had My Hopes Up High
TTITLE1=Mardi Gras Walta
TTITLE2=She never Spoke Spanish To Me
TTITLE3=Gambler's Bride
TTITLE4=Suckin' a Big Bottle of Gin
TTITLE5=Tennessee's Not The State I'm In
TTITLE6=If You Were a Bluebird
TTITLE7=Treat Me Like a Saturday Night
TTITLE8=All My Love
TTITLE9=Johnny Blues
TTITLE10=Cornbread Moon
TTITLE11=Because of the Wind
TTITLE12=Boxcars
TTITLE13=Jericho
TTITLE14=Tonight I Think I'm Gonna Go Downtown
TTITLE15=Honky Tonk Masquerade
TTITLE16=I'll Be Your Fool
TTITLE17=Fingernails
TTITLE18=West Texas Waltz
TTITLE19=Honky Tonkin'
EXTD=Due LP in un CD (rimasterizzati): Joe Ely (1977)\\Honky Tonk Masquerad
EXTD=e (1978)
EXTT0=Joe Ely
EXTT1=Joe Ely
EXTT2=Joe Ely
EXTT3=Joe Ely
EXTT4=Joe Ely
EXTT5=Joe Ely
EXTT6=Joe Ely
EXTT7=Joe Ely
EXTT8=Joe Ely
EXTT9=Joe Ely
EXTT10=Honky Tonk Masquerade
EXTT11=Honky Tonk Masquerade
EXTT12=Honky Tonk Masquerade
EXTT13=Honky Tonk Masquerade
EXTT14=
EXTT15=Honky Tonk Masquerade
EXTT16=Honky Tonk Masquerade
EXTT17=Honky Tonk Masquerade
EXTT18=Honky Tonk Masquerade
EXTT19=Honky Tonk Masquerade
PLAYORDER=
